<svg width="30" height="30" viewBox="0 0 30 30" fill="none" xmlns="http://www.w3.org/2000/svg">
<path d="M5 5C3.36 5 2 6.36 2 8V21C2 21.77 2.29906 22.47 2.78906 23H0C0 24.66 1.34 26 3 26H27C28.66 26 30 24.66 30 23H27.2109C27.7009 22.47 28 21.77 28 21V8C28 6.36 26.64 5 25 5H5ZM5 7H25C25.57 7 26 7.43 26 8V21C26 21.57 25.57 22 25 22H5C4.43 22 4 21.57 4 21V8C4 7.43 4.43 7 5 7ZM18 11C17.74 11 17.4891 11.0991 17.2891 11.2891L14 14.5898L12.7109 13.2891C12.3209 12.8991 11.6791 12.8991 11.2891 13.2891C10.8991 13.6791 10.8991 14.3209 11.2891 14.7109L13.2891 16.7109C13.4891 16.9009 13.74 17 14 17C14.26 17 14.5109 16.9009 14.7109 16.7109L18.7109 12.7109C19.1009 12.3209 19.1009 11.6791 18.7109 11.2891C18.5109 11.0991 18.26 11 18 11Z" fill="#5B4FE8"/>
</svg>
